<svg width="379" height="101" viewBox="0 0 379 101" fill="none" xmlns="http://www.w3.org/2000/svg">
<rect width="378.395" height="100.071" rx="18" fill="#1B1503"/>
<path d="M55.699 31.0694L48.5385 30.989L48.619 39.9998L49.8258 44.8271L54.814 45.4707L58.2735 44.7467L59.6412 40.8044L59.239 35.3335L57.0667 31.6326L55.699 31.0694ZM53.3658 53.6771L48.3776 53.1944L47.8949 70.8139L52.4003 71.2966L55.2162 70.8943L57.6299 66.5498L57.3885 60.1939L56.1817 56.0907L53.3658 53.6771ZM40.654 36.2185L41.0563 20.9321L58.7562 21.0931L66.8821 22.2999L70.583 25.1158L71.8703 37.5058L69.8589 45.1489L68.1694 46.758L64.388 48.3671L67.7671 49.413L69.1349 50.8612L70.9853 54.4012L71.8703 61.4812L70.9853 75.6412L69.8589 77.4916L64.8708 78.9398L56.1817 80.2271L41.0563 80.0662L40.8954 56.9757L40.654 36.2185ZM74.4448 21.3344L90.7771 20.8517L99.3053 21.1735L101.719 21.3344L100.834 33.0003L94.3976 32.598L94.8803 80.2271L80.6398 80.388L81.3639 52.068L81.6858 32.4371L73.8817 31.713L74.4448 21.3344ZM104.776 79.9052L104.615 51.9876L104.937 49.0107L104.776 46.0339L105.178 28.2535L105.903 21.3344L132.05 21.8171L132.452 37.5058H115.316L114.994 47.5626L128.108 47.3212V48.2062L128.51 55.0448L116.281 55.2862L116.683 67.1934L133.016 67.998V80.388L104.776 79.9052ZM158.681 50.4589V34.2071L148.946 34.368C148.946 36.3794 148.302 39.9998 148.222 43.218C148.222 45.0685 148.141 47.0798 147.98 49.1716L147.497 56.1712V64.3775L148.302 69.0439L156.187 69.5266L157.876 68.3198L158.359 58.9871L159.807 59.148L164.876 58.9871L165.439 61.8834L165.197 73.9516V77.9743L160.209 80.0662L158.681 80.3075L157.313 80.4684L145.164 79.9857L138.245 77.4112L135.671 64.6189L136.636 52.5507L137.36 39.3562V28.8971L140.337 23.2653L143.072 20.9321L152.405 21.1735H160.531L165.439 23.3458L165.761 50.0567C164.473 50.2176 159.968 50.4589 158.681 50.4589ZM192.793 48.9303L191.667 21.0931H192.311L199.149 21.254L201.161 80.1466L192.15 80.5489L191.747 57.1366L183.058 57.6194L182.495 80.2271H173.002L169.703 80.0662V69.768L169.059 51.183L169.864 21.0931L183.219 21.3344L182.897 49.1716L192.793 48.9303ZM206.229 35.4944L219.102 35.8162L218.458 45.873L219.424 66.3084L218.861 79.9052L217.734 80.0662L206.471 79.8248L205.988 76.1239L205.827 54.5621L206.229 35.4944ZM206.712 19.8058L218.861 19.9667L219.424 23.1044V28.4949L219.102 31.3912L206.229 31.4717L205.827 26.2421L205.666 20.6103L206.712 19.8058ZM250.801 20.7712H251.605L250.801 36.2185L238.572 35.4944L238.813 48.6889L249.835 49.3326L250.721 56.9757H237.767L239.135 80.388L225.538 79.9857L224.975 56.0103L224.814 45.2294L225.377 21.6562L235.756 20.6103L250.801 20.7712ZM256.272 35.4944L269.145 35.8162L268.501 45.873L269.466 66.3084L268.903 79.9052L267.777 80.0662L256.513 79.8248L256.03 76.1239L255.87 54.5621L256.272 35.4944ZM256.755 19.8058L268.903 19.9667L269.466 23.1044V28.4949L269.145 31.3912L256.272 31.4717L255.87 26.2421L255.709 20.6103L256.755 19.8058ZM275.581 79.9052L275.42 51.9876L275.742 49.0107L275.581 46.0339L275.983 28.2535L276.707 21.3344L302.855 21.8171L303.257 37.5058H286.12L285.799 47.5626L298.913 47.3212V48.2062L299.315 55.0448L287.086 55.2862L287.488 67.1934L303.82 67.998V80.388L275.581 79.9052ZM322.325 32.8394L313.877 31.9544L312.992 68.9634L320.716 69.1244L321.842 67.9175L323.773 48.6889V39.4367L322.325 32.8394ZM307.28 21.3344H309.774L316.21 21.1735C319.75 21.0931 323.13 21.0126 324.658 21.254L329.405 22.6217C330.37 22.9435 331.336 23.3458 332.301 23.7481L336.726 30.828C337.048 35.8967 337.289 40.6435 337.37 45.1489C337.37 52.8726 337.37 61.3203 336.726 64.8603C336.324 67.3544 335.761 69.4462 335.68 70.9748C335.439 71.8598 335.359 72.7448 335.359 73.4689L331.094 79.8248L321.44 80.388H306.878L307.28 21.3344Z" fill="white"/>
</svg>
